<svg width="357" height="16" viewBox="0 0 357 16" fill="none" xmlns="http://www.w3.org/2000/svg">
<path d="M5.955 1.44C6.965 1.44 7.865 1.67 8.655 2.13C9.445 2.58 10.055 3.21 10.485 4.02C10.925 4.82 11.145 5.735 11.145 6.765C11.145 7.795 10.925 8.715 10.485 9.525C10.055 10.325 9.445 10.955 8.655 11.415C7.865 11.865 6.965 12.09 5.955 12.09C4.935 12.09 4.03 11.865 3.24 11.415C2.45 10.955 1.835 10.325 1.395 9.525C0.955 8.715 0.735 7.795 0.735 6.765C0.735 5.735 0.955 4.82 1.395 4.02C1.835 3.21 2.45 2.58 3.24 2.13C4.03 1.67 4.935 1.44 5.955 1.44ZM5.955 2.04C5.025 2.04 4.215 2.24 3.525 2.64C2.835 3.03 2.305 3.58 1.935 4.29C1.565 5 1.38 5.825 1.38 6.765C1.38 7.695 1.565 8.52 1.935 9.24C2.305 9.95 2.835 10.505 3.525 10.905C4.215 11.305 5.025 11.505 5.955 11.505C6.875 11.505 7.675 11.305 8.355 10.905C9.045 10.505 9.575 9.95 9.945 9.24C10.315 8.52 10.5 7.695 10.5 6.765C10.5 5.825 10.315 5 9.945 4.29C9.575 3.58 9.045 3.03 8.355 2.64C7.675 2.24 6.875 2.04 5.955 2.04ZM5.925 3.285C5.325 3.285 4.775 3.425 4.275 3.705C3.785 3.985 3.395 4.39 3.105 4.92C2.815 5.44 2.67 6.05 2.67 6.75C2.67 7.45 2.815 8.065 3.105 8.595C3.395 9.115 3.785 9.52 4.275 9.81C4.775 10.09 5.325 10.23 5.925 10.23C6.675 10.23 7.325 10.03 7.875 9.63C8.425 9.22 8.8 8.675 9 7.995H7.74C7.44 8.825 6.835 9.24 5.925 9.24C5.325 9.24 4.835 9.025 4.455 8.595C4.075 8.165 3.885 7.555 3.885 6.765C3.885 5.965 4.075 5.35 4.455 4.92C4.835 4.49 5.325 4.275 5.925 4.275C6.365 4.275 6.745 4.385 7.065 4.605C7.385 4.815 7.61 5.12 7.74 5.52H9C8.81 4.81 8.44 4.26 7.89 3.87C7.34 3.48 6.685 3.285 5.925 3.285ZM21.1439 10.905C22.4139 9.885 23.4089 9.05 24.1289 8.4C24.8489 7.74 25.4539 7.055 25.9439 6.345C26.4439 5.625 26.6939 4.92 26.6939 4.23C26.6939 3.58 26.5339 3.07 26.2139 2.7C25.9039 2.32 25.3989 2.13 24.6989 2.13C24.0189 2.13 23.4889 2.345 23.1089 2.775C22.7389 3.195 22.5389 3.76 22.5089 4.47H21.1889C21.2289 3.35 21.5689 2.485 22.2089 1.875C22.8489 1.265 23.6739 0.959999 24.6839 0.959999C25.7139 0.959999 26.5289 1.245 27.1289 1.815C27.7389 2.385 28.0439 3.17 28.0439 4.17C28.0439 5 27.7939 5.81 27.2939 6.6C26.8039 7.38 26.2439 8.07 25.6139 8.67C24.9839 9.26 24.1789 9.95 23.1989 10.74H28.3589V11.88H21.1439V10.905ZM32.1868 6.465C32.1868 4.745 32.4668 3.405 33.0268 2.445C33.5868 1.475 34.5668 0.99 35.9668 0.99C37.3568 0.99 38.3318 1.475 38.8918 2.445C39.4518 3.405 39.7318 4.745 39.7318 6.465C39.7318 8.215 39.4518 9.575 38.8918 10.545C38.3318 11.515 37.3568 12 35.9668 12C34.5668 12 33.5868 11.515 33.0268 10.545C32.4668 9.575 32.1868 8.215 32.1868 6.465ZM38.3818 6.465C38.3818 5.595 38.3218 4.86 38.2018 4.26C38.0918 3.65 37.8568 3.16 37.4968 2.79C37.1468 2.42 36.6368 2.235 35.9668 2.235C35.2868 2.235 34.7668 2.42 34.4068 2.79C34.0568 3.16 33.8218 3.65 33.7018 4.26C33.5918 4.86 33.5368 5.595 33.5368 6.465C33.5368 7.365 33.5918 8.12 33.7018 8.73C33.8218 9.34 34.0568 9.83 34.4068 10.2C34.7668 10.57 35.2868 10.755 35.9668 10.755C36.6368 10.755 37.1468 10.57 37.4968 10.2C37.8568 9.83 38.0918 9.34 38.2018 8.73C38.3218 8.12 38.3818 7.365 38.3818 6.465ZM43.6908 10.905C44.9608 9.885 45.9558 9.05 46.6758 8.4C47.3958 7.74 48.0008 7.055 48.4908 6.345C48.9908 5.625 49.2408 4.92 49.2408 4.23C49.2408 3.58 49.0808 3.07 48.7608 2.7C48.4508 2.32 47.9458 2.13 47.2458 2.13C46.5658 2.13 46.0358 2.345 45.6558 2.775C45.2858 3.195 45.0858 3.76 45.0558 4.47H43.7358C43.7758 3.35 44.1158 2.485 44.7558 1.875C45.3958 1.265 46.2208 0.959999 47.2308 0.959999C48.2608 0.959999 49.0758 1.245 49.6758 1.815C50.2858 2.385 50.5908 3.17 50.5908 4.17C50.5908 5 50.3408 5.81 49.8408 6.6C49.3508 7.38 48.7908 8.07 48.1608 8.67C47.5308 9.26 46.7258 9.95 45.7458 10.74H50.9058V11.88H43.6908V10.905ZM54.3737 2.4V1.155H57.1937V12H55.8137V2.4H54.3737ZM74.4424 9.675H69.8824L69.0424 12H67.6024L71.3824 1.605H72.9574L76.7224 12H75.2824L74.4424 9.675ZM74.0524 8.565L72.1624 3.285L70.2724 8.565H74.0524ZM87.9098 3.78V12H86.5448V10.785C86.2848 11.205 85.9198 11.535 85.4498 11.775C84.9898 12.005 84.4798 12.12 83.9198 12.12C83.2798 12.12 82.7048 11.99 82.1948 11.73C81.6848 11.46 81.2798 11.06 80.9798 10.53C80.6898 10 80.5448 9.355 80.5448 8.595V3.78H81.8948V8.415C81.8948 9.225 82.0998 9.85 82.5098 10.29C82.9198 10.72 83.4798 10.935 84.1898 10.935C84.9198 10.935 85.4948 10.71 85.9148 10.26C86.3348 9.81 86.5448 9.155 86.5448 8.295V3.78H87.9098ZM94.1296 4.905V9.75C94.1296 10.15 94.2146 10.435 94.3846 10.605C94.5546 10.765 94.8496 10.845 95.2696 10.845H96.2746V12H95.0446C94.2846 12 93.7146 11.825 93.3346 11.475C92.9546 11.125 92.7646 10.55 92.7646 9.75V4.905H91.6996V3.78H92.7646V1.71H94.1296V3.78H96.2746V4.905H94.1296ZM103.763 12.135C102.993 12.135 102.293 11.96 101.663 11.61C101.043 11.26 100.553 10.765 100.193 10.125C99.8434 9.475 99.6684 8.725 99.6684 7.875C99.6684 7.035 99.8484 6.295 100.208 5.655C100.578 5.005 101.078 4.51 101.708 4.17C102.338 3.82 103.043 3.645 103.823 3.645C104.603 3.645 105.308 3.82 105.938 4.17C106.568 4.51 107.063 5 107.423 5.64C107.793 6.28 107.978 7.025 107.978 7.875C107.978 8.725 107.788 9.475 107.408 10.125C107.038 10.765 106.533 11.26 105.893 11.61C105.253 11.96 104.543 12.135 103.763 12.135ZM103.763 10.935C104.253 10.935 104.713 10.82 105.143 10.59C105.573 10.36 105.918 10.015 106.178 9.555C106.448 9.095 106.583 8.535 106.583 7.875C106.583 7.215 106.453 6.655 106.193 6.195C105.933 5.735 105.593 5.395 105.173 5.175C104.753 4.945 104.298 4.83 103.808 4.83C103.308 4.83 102.848 4.945 102.428 5.175C102.018 5.395 101.688 5.735 101.438 6.195C101.188 6.655 101.063 7.215 101.063 7.875C101.063 8.545 101.183 9.11 101.423 9.57C101.673 10.03 102.003 10.375 102.413 10.605C102.823 10.825 103.273 10.935 103.763 10.935ZM119.937 4.905V9.75C119.937 10.15 120.022 10.435 120.192 10.605C120.362 10.765 120.657 10.845 121.077 10.845H122.082V12H120.852C120.092 12 119.522 11.825 119.142 11.475C118.762 11.125 118.572 10.55 118.572 9.75V4.905H117.507V3.78H118.572V1.71H119.937V3.78H122.082V4.905H119.937ZM130.066 3.63C130.686 3.63 131.246 3.765 131.746 4.035C132.246 4.295 132.636 4.69 132.916 5.22C133.206 5.75 133.351 6.395 133.351 7.155V12H132.001V7.35C132.001 6.53 131.796 5.905 131.386 5.475C130.976 5.035 130.416 4.815 129.706 4.815C128.986 4.815 128.411 5.04 127.981 5.49C127.561 5.94 127.351 6.595 127.351 7.455V12H125.986V0.9H127.351V4.95C127.621 4.53 127.991 4.205 128.461 3.975C128.941 3.745 129.476 3.63 130.066 3.63ZM145.331 7.575C145.331 7.835 145.316 8.11 145.286 8.4H138.716C138.766 9.21 139.041 9.845 139.541 10.305C140.051 10.755 140.666 10.98 141.386 10.98C141.976 10.98 142.466 10.845 142.856 10.575C143.256 10.295 143.536 9.925 143.696 9.465H145.166C144.946 10.255 144.506 10.9 143.846 11.4C143.186 11.89 142.366 12.135 141.386 12.135C140.606 12.135 139.906 11.96 139.286 11.61C138.676 11.26 138.196 10.765 137.846 10.125C137.496 9.475 137.321 8.725 137.321 7.875C137.321 7.025 137.491 6.28 137.831 5.64C138.171 5 138.646 4.51 139.256 4.17C139.876 3.82 140.586 3.645 141.386 3.645C142.166 3.645 142.856 3.815 143.456 4.155C144.056 4.495 144.516 4.965 144.836 5.565C145.166 6.155 145.331 6.825 145.331 7.575ZM143.921 7.29C143.921 6.77 143.806 6.325 143.576 5.955C143.346 5.575 143.031 5.29 142.631 5.1C142.241 4.9 141.806 4.8 141.326 4.8C140.636 4.8 140.046 5.02 139.556 5.46C139.076 5.9 138.801 6.51 138.731 7.29H143.921ZM159.268 3.63C159.908 3.63 160.478 3.765 160.978 4.035C161.478 4.295 161.873 4.69 162.163 5.22C162.453 5.75 162.598 6.395 162.598 7.155V12H161.248V7.35C161.248 6.53 161.043 5.905 160.633 5.475C160.233 5.035 159.688 4.815 158.998 4.815C158.288 4.815 157.723 5.045 157.303 5.505C156.883 5.955 156.673 6.61 156.673 7.47V12H155.323V7.35C155.323 6.53 155.118 5.905 154.708 5.475C154.308 5.035 153.763 4.815 153.073 4.815C152.363 4.815 151.798 5.045 151.378 5.505C150.958 5.955 150.748 6.61 150.748 7.47V12H149.383V3.78H150.748V4.965C151.018 4.535 151.378 4.205 151.828 3.975C152.288 3.745 152.793 3.63 153.343 3.63C154.033 3.63 154.643 3.785 155.173 4.095C155.703 4.405 156.098 4.86 156.358 5.46C156.588 4.88 156.968 4.43 157.498 4.11C158.028 3.79 158.618 3.63 159.268 3.63ZM174.587 7.575C174.587 7.835 174.572 8.11 174.542 8.4H167.972C168.022 9.21 168.297 9.845 168.797 10.305C169.307 10.755 169.922 10.98 170.642 10.98C171.232 10.98 171.722 10.845 172.112 10.575C172.512 10.295 172.792 9.925 172.952 9.465H174.422C174.202 10.255 173.762 10.9 173.102 11.4C172.442 11.89 171.622 12.135 170.642 12.135C169.862 12.135 169.162 11.96 168.542 11.61C167.932 11.26 167.452 10.765 167.102 10.125C166.752 9.475 166.577 8.725 166.577 7.875C166.577 7.025 166.747 6.28 167.087 5.64C167.427 5 167.902 4.51 168.512 4.17C169.132 3.82 169.842 3.645 170.642 3.645C171.422 3.645 172.112 3.815 172.712 4.155C173.312 4.495 173.772 4.965 174.092 5.565C174.422 6.155 174.587 6.825 174.587 7.575ZM173.177 7.29C173.177 6.77 173.062 6.325 172.832 5.955C172.602 5.575 172.287 5.29 171.887 5.1C171.497 4.9 171.062 4.8 170.582 4.8C169.892 4.8 169.302 5.02 168.812 5.46C168.332 5.9 168.057 6.51 167.987 7.29H173.177ZM186.252 5.31C186.532 4.82 186.942 4.42 187.482 4.11C188.022 3.8 188.637 3.645 189.327 3.645C190.067 3.645 190.732 3.82 191.322 4.17C191.912 4.52 192.377 5.015 192.717 5.655C193.057 6.285 193.227 7.02 193.227 7.86C193.227 8.69 193.057 9.43 192.717 10.08C192.377 10.73 191.907 11.235 191.307 11.595C190.717 11.955 190.057 12.135 189.327 12.135C188.617 12.135 187.992 11.98 187.452 11.67C186.922 11.36 186.522 10.965 186.252 10.485V12H184.887V0.9H186.252V5.31ZM191.832 7.86C191.832 7.24 191.707 6.7 191.457 6.24C191.207 5.78 190.867 5.43 190.437 5.19C190.017 4.95 189.552 4.83 189.042 4.83C188.542 4.83 188.077 4.955 187.647 5.205C187.227 5.445 186.887 5.8 186.627 6.27C186.377 6.73 186.252 7.265 186.252 7.875C186.252 8.495 186.377 9.04 186.627 9.51C186.887 9.97 187.227 10.325 187.647 10.575C188.077 10.815 188.542 10.935 189.042 10.935C189.552 10.935 190.017 10.815 190.437 10.575C190.867 10.325 191.207 9.97 191.457 9.51C191.707 9.04 191.832 8.49 191.832 7.86ZM204.354 3.78L199.404 15.87H197.994L199.614 11.91L196.299 3.78H197.814L200.394 10.44L202.944 3.78H204.354ZM220.135 1.545V2.655H215.59V6.18H219.28V7.29H215.59V12H214.225V1.545H220.135ZM225.399 5.115C225.639 4.645 225.979 4.28 226.419 4.02C226.869 3.76 227.414 3.63 228.054 3.63V5.04H227.694C226.164 5.04 225.399 5.87 225.399 7.53V12H224.034V3.78H225.399V5.115ZM235.465 12.135C234.695 12.135 233.995 11.96 233.365 11.61C232.745 11.26 232.255 10.765 231.895 10.125C231.545 9.475 231.37 8.725 231.37 7.875C231.37 7.035 231.55 6.295 231.91 5.655C232.28 5.005 232.78 4.51 233.41 4.17C234.04 3.82 234.745 3.645 235.525 3.645C236.305 3.645 237.01 3.82 237.64 4.17C238.27 4.51 238.765 5 239.125 5.64C239.495 6.28 239.68 7.025 239.68 7.875C239.68 8.725 239.49 9.475 239.11 10.125C238.74 10.765 238.235 11.26 237.595 11.61C236.955 11.96 236.245 12.135 235.465 12.135ZM235.465 10.935C235.955 10.935 236.415 10.82 236.845 10.59C237.275 10.36 237.62 10.015 237.88 9.555C238.15 9.095 238.285 8.535 238.285 7.875C238.285 7.215 238.155 6.655 237.895 6.195C237.635 5.735 237.295 5.395 236.875 5.175C236.455 4.945 236 4.83 235.51 4.83C235.01 4.83 234.55 4.945 234.13 5.175C233.72 5.395 233.39 5.735 233.14 6.195C232.89 6.655 232.765 7.215 232.765 7.875C232.765 8.545 232.885 9.11 233.125 9.57C233.375 10.03 233.705 10.375 234.115 10.605C234.525 10.825 234.975 10.935 235.465 10.935ZM247.729 3.63C248.729 3.63 249.539 3.935 250.159 4.545C250.779 5.145 251.089 6.015 251.089 7.155V12H249.739V7.35C249.739 6.53 249.534 5.905 249.124 5.475C248.714 5.035 248.154 4.815 247.444 4.815C246.724 4.815 246.149 5.04 245.719 5.49C245.299 5.94 245.089 6.595 245.089 7.455V12H243.724V3.78H245.089V4.95C245.359 4.53 245.724 4.205 246.184 3.975C246.654 3.745 247.169 3.63 247.729 3.63ZM257.234 4.905V9.75C257.234 10.15 257.319 10.435 257.489 10.605C257.659 10.765 257.954 10.845 258.374 10.845H259.379V12H258.149C257.389 12 256.819 11.825 256.439 11.475C256.059 11.125 255.869 10.55 255.869 9.75V4.905H254.804V3.78H255.869V1.71H257.234V3.78H259.379V4.905H257.234ZM270.783 7.575C270.783 7.835 270.768 8.11 270.738 8.4H264.168C264.218 9.21 264.493 9.845 264.993 10.305C265.503 10.755 266.118 10.98 266.838 10.98C267.428 10.98 267.918 10.845 268.308 10.575C268.708 10.295 268.988 9.925 269.148 9.465H270.618C270.398 10.255 269.958 10.9 269.298 11.4C268.638 11.89 267.818 12.135 266.838 12.135C266.058 12.135 265.358 11.96 264.738 11.61C264.128 11.26 263.648 10.765 263.298 10.125C262.948 9.475 262.773 8.725 262.773 7.875C262.773 7.025 262.943 6.28 263.283 5.64C263.623 5 264.098 4.51 264.708 4.17C265.328 3.82 266.038 3.645 266.838 3.645C267.618 3.645 268.308 3.815 268.908 4.155C269.508 4.495 269.968 4.965 270.288 5.565C270.618 6.155 270.783 6.825 270.783 7.575ZM269.373 7.29C269.373 6.77 269.258 6.325 269.028 5.955C268.798 5.575 268.483 5.29 268.083 5.1C267.693 4.9 267.258 4.8 266.778 4.8C266.088 4.8 265.498 5.02 265.008 5.46C264.528 5.9 264.253 6.51 264.183 7.29H269.373ZM278.84 3.63C279.84 3.63 280.65 3.935 281.27 4.545C281.89 5.145 282.2 6.015 282.2 7.155V12H280.85V7.35C280.85 6.53 280.645 5.905 280.235 5.475C279.825 5.035 279.265 4.815 278.555 4.815C277.835 4.815 277.26 5.04 276.83 5.49C276.41 5.94 276.2 6.595 276.2 7.455V12H274.835V3.78H276.2V4.95C276.47 4.53 276.835 4.205 277.295 3.975C277.765 3.745 278.28 3.63 278.84 3.63ZM286.169 7.86C286.169 7.02 286.339 6.285 286.679 5.655C287.019 5.015 287.484 4.52 288.074 4.17C288.674 3.82 289.344 3.645 290.084 3.645C290.724 3.645 291.319 3.795 291.869 4.095C292.419 4.385 292.839 4.77 293.129 5.25V0.9H294.509V12H293.129V10.455C292.859 10.945 292.459 11.35 291.929 11.67C291.399 11.98 290.779 12.135 290.069 12.135C289.339 12.135 288.674 11.955 288.074 11.595C287.484 11.235 287.019 10.73 286.679 10.08C286.339 9.43 286.169 8.69 286.169 7.86ZM293.129 7.875C293.129 7.255 293.004 6.715 292.754 6.255C292.504 5.795 292.164 5.445 291.734 5.205C291.314 4.955 290.849 4.83 290.339 4.83C289.829 4.83 289.364 4.95 288.944 5.19C288.524 5.43 288.189 5.78 287.939 6.24C287.689 6.7 287.564 7.24 287.564 7.86C287.564 8.49 287.689 9.04 287.939 9.51C288.189 9.97 288.524 10.325 288.944 10.575C289.364 10.815 289.829 10.935 290.339 10.935C290.849 10.935 291.314 10.815 291.734 10.575C292.164 10.325 292.504 9.97 292.754 9.51C293.004 9.04 293.129 8.495 293.129 7.875ZM311.75 1.545V2.655H308.9V12H307.535V2.655H304.67V1.545H311.75ZM317.045 5.115C317.285 4.645 317.625 4.28 318.065 4.02C318.515 3.76 319.06 3.63 319.7 3.63V5.04H319.34C317.81 5.04 317.045 5.87 317.045 7.53V12H315.68V3.78H317.045V5.115ZM324.231 2.445C323.971 2.445 323.751 2.355 323.571 2.175C323.391 1.995 323.301 1.775 323.301 1.515C323.301 1.255 323.391 1.035 323.571 0.855C323.751 0.674999 323.971 0.584999 324.231 0.584999C324.481 0.584999 324.691 0.674999 324.861 0.855C325.041 1.035 325.131 1.255 325.131 1.515C325.131 1.775 325.041 1.995 324.861 2.175C324.691 2.355 324.481 2.445 324.231 2.445ZM324.891 3.78V12H323.526V3.78H324.891ZM328.958 7.875C328.958 7.025 329.128 6.285 329.468 5.655C329.808 5.015 330.278 4.52 330.878 4.17C331.488 3.82 332.183 3.645 332.963 3.645C333.973 3.645 334.803 3.89 335.453 4.38C336.113 4.87 336.548 5.55 336.758 6.42H335.288C335.148 5.92 334.873 5.525 334.463 5.235C334.063 4.945 333.563 4.8 332.963 4.8C332.183 4.8 331.553 5.07 331.073 5.61C330.593 6.14 330.353 6.895 330.353 7.875C330.353 8.865 330.593 9.63 331.073 10.17C331.553 10.71 332.183 10.98 332.963 10.98C333.563 10.98 334.063 10.84 334.463 10.56C334.863 10.28 335.138 9.88 335.288 9.36H336.758C336.538 10.2 336.098 10.875 335.438 11.385C334.778 11.885 333.953 12.135 332.963 12.135C332.183 12.135 331.488 11.96 330.878 11.61C330.278 11.26 329.808 10.765 329.468 10.125C329.128 9.485 328.958 8.735 328.958 7.875ZM345.419 12L342.194 8.37V12H340.829V0.9H342.194V7.425L345.359 3.78H347.264L343.394 7.875L347.279 12H345.419ZM353.709 12.135C353.079 12.135 352.514 12.03 352.014 11.82C351.514 11.6 351.119 11.3 350.829 10.92C350.539 10.53 350.379 10.085 350.349 9.585H351.759C351.799 9.995 351.989 10.33 352.329 10.59C352.679 10.85 353.134 10.98 353.694 10.98C354.214 10.98 354.624 10.865 354.924 10.635C355.224 10.405 355.374 10.115 355.374 9.765C355.374 9.405 355.214 9.14 354.894 8.97C354.574 8.79 354.079 8.615 353.409 8.445C352.799 8.285 352.299 8.125 351.909 7.965C351.529 7.795 351.199 7.55 350.919 7.23C350.649 6.9 350.514 6.47 350.514 5.94C350.514 5.52 350.639 5.135 350.889 4.785C351.139 4.435 351.494 4.16 351.954 3.96C352.414 3.75 352.939 3.645 353.529 3.645C354.439 3.645 355.174 3.875 355.734 4.335C356.294 4.795 356.594 5.425 356.634 6.225H355.269C355.239 5.795 355.064 5.45 354.744 5.19C354.434 4.93 354.014 4.8 353.484 4.8C352.994 4.8 352.604 4.905 352.314 5.115C352.024 5.325 351.879 5.6 351.879 5.94C351.879 6.21 351.964 6.435 352.134 6.615C352.314 6.785 352.534 6.925 352.794 7.035C353.064 7.135 353.434 7.25 353.904 7.38C354.494 7.54 354.974 7.7 355.344 7.86C355.714 8.01 356.029 8.24 356.289 8.55C356.559 8.86 356.699 9.265 356.709 9.765C356.709 10.215 356.584 10.62 356.334 10.98C356.084 11.34 355.729 11.625 355.269 11.835C354.819 12.035 354.299 12.135 353.709 12.135Z" fill="black"/>
</svg>
